<svg width="1287" height="1288" viewBox="0 0 1287 1288" fill="none" xmlns="http://www.w3.org/2000/svg">
<path d="M1158 642.855C1158 900.309 968.838 1113.63 721.911 1151.46C696.282 1155.32 670.044 1157.36 643.398 1157.36C599.464 1157.36 556.75 1151.86 516.07 1141.29C440.405 1122.17 371.453 1086.18 313.484 1037.58C200.8 943.218 129 801.476 129 642.855C129 492.573 193.274 357.338 296.195 263.386C315.111 245.897 335.451 230.035 356.808 215.597C438.778 160.486 537.427 128.355 643.398 128.355C872.223 128.355 1066.06 277.621 1132.78 484.032C1149.25 534.058 1158 587.338 1158 642.855Z" fill="#FF1469" style="fill:#FF1469;fill:color(display-p3 1.0000 0.0784 0.4118);fill-opacity:1;"/>
<path d="M1158 642.855C1158 900.309 968.838 1113.63 721.911 1151.46C696.282 1155.32 670.044 1157.36 643.398 1157.36C599.464 1157.36 556.75 1151.86 516.07 1141.29C440.405 1122.17 371.453 1086.18 313.484 1037.58C200.8 943.218 129 801.476 129 642.855C129 492.573 193.274 357.338 296.195 263.386C315.111 245.897 335.451 230.035 356.808 215.597C438.778 160.486 537.427 128.355 643.398 128.355C872.223 128.355 1066.06 277.621 1132.78 484.032C1149.25 534.058 1158 587.338 1158 642.855Z" fill="url(#paint0_angular_1567_549)" style=""/>
<path d="M662.605 429.21L846.318 640.039C857.101 652.237 876.225 652.237 886.804 640.039L1070.52 429.21C1078.86 419.655 1071.94 405.017 1059.33 405.017H673.591C660.978 405.017 654.06 419.655 662.402 429.21H662.605Z" fill="white" style="fill:white;fill-opacity:1;"/>
<path d="M1158 642.885C1158 900.272 968.794 1113.54 721.809 1151.36C661.792 992.37 589.161 831.147 515.92 744.335V1141.19C440.237 1122.08 371.268 1086.09 313.286 1037.5C341.158 867.743 357.434 604.664 295.993 263.515C290.296 230.783 283.583 197.44 276.258 163.285C274.021 152.916 286.838 146.004 294.569 153.526C309.42 168.164 330.579 189.105 356.62 215.738C467.906 329.59 668.912 547.738 866.663 824.032C957.808 696.965 1049.36 582.097 1132.77 484.103C1149.25 534.116 1158 587.383 1158 642.885Z" fill="white" style="fill:white;fill-opacity:1;"/>
<defs>
<radialGradient id="paint0_angular_1567_549" cx="0" cy="0" r="1" gradientUnits="userSpaceOnUse" gradientTransform="translate(129 1112.11) rotate(-13.5665) scale(2140.27 1655.64)">
<stop stop-color="#40D3F5" style="stop-color:#40D3F5;stop-color:color(display-p3 0.2510 0.8275 0.9608);stop-opacity:1;"/>
<stop offset="0.0865798" stop-color="#40D3F5" style="stop-color:#40D3F5;stop-color:color(display-p3 0.2510 0.8275 0.9608);stop-opacity:1;"/>
<stop offset="0.892186" stop-color="#FF1469" style="stop-color:#FF1469;stop-color:color(display-p3 1.0000 0.0784 0.4118);stop-opacity:1;"/>
<stop offset="1" stop-color="#40D3F5" stop-opacity="0.77" style="stop-color:#40D3F5;stop-color:color(display-p3 0.2510 0.8275 0.9608);stop-opacity:0.77;"/>
</radialGradient>
</defs>
</svg>
